<?xml version="1.0" encoding="utf-8"?><svg xml:space="preserve" viewBox="0 0 100 100" y="0" x="0" xmlns="http://www.w3.org/2000/svg" id="圖層_1" version="1.1" width="128px" height="128px" xmlns:xlink="http://www.w3.org/1999/xlink" style="width:100%;height:100%;background-size:initial;background-repeat-y:initial;background-repeat-x:initial;background-position-y:initial;background-position-x:initial;background-origin:initial;background-image:initial;background-color:rgb(255, 255, 255);background-clip:initial;background-attachment:initial;animation-play-state:paused" ><g class="ldl-scale" style="transform-origin:50% 50%;transform:scale(0.8);animation-play-state:paused" ><path d="M66.6 10H33.4L10 33.4v33.2L33.4 90h33.2L90 66.6V33.4z" stroke-miterlimit="10" stroke-width="3.399" stroke="#e0e0e0" fill="#e15b64" style="stroke:rgb(224, 224, 224);fill:rgb(225, 91, 100);animation-play-state:paused" ></path>
<g style="animation-play-state:paused" ><path fill="#fff" d="M30.8 54.1c0-.6-.2-1.1-.7-1.4s-1.2-.7-2.4-1.1c-1.2-.4-2.1-.7-2.7-1.1-1.8-1-2.7-2.3-2.7-4 0-.9.2-1.6.7-2.3.5-.7 1.2-1.2 2.1-1.6.9-.4 1.9-.6 3.1-.6 1.2 0 2.2.2 3.1.6.9.4 1.6 1 2.1 1.8s.7 1.6.7 2.6h-3.3c0-.7-.2-1.3-.7-1.7-.5-.4-1.1-.6-2-.6-.8 0-1.4.2-1.9.5s-.7.8-.7 1.4c0 .5.3 1 .8 1.3s1.3.7 2.3 1c1.9.6 3.3 1.3 4.1 2.1.9.8 1.3 1.9 1.3 3.1 0 1.4-.5 2.5-1.6 3.3-1.1.8-2.5 1.2-4.3 1.2-1.2 0-2.4-.2-3.4-.7-1-.5-1.8-1.1-2.3-1.9-.5-.8-.8-1.7-.8-2.7h3.3c0 1.8 1.1 2.7 3.2 2.7.8 0 1.4-.2 1.8-.5s.9-.8.9-1.4z" style="fill:rgb(255, 255, 255);animation-play-state:paused" ></path>
<path fill="#fff" d="M48.5 44.9h-4.9v13.4h-3.3V44.9h-4.9v-2.7h13.1v2.7z" style="fill:rgb(255, 255, 255);animation-play-state:paused" ></path>
<path fill="#fff" d="M63.4 50.6c0 1.6-.3 3-.8 4.2-.6 1.2-1.4 2.1-2.4 2.8s-2.2 1-3.6 1c-1.3 0-2.5-.3-3.6-1-1-.6-1.9-1.6-2.4-2.7-.6-1.2-.9-2.6-.9-4.1V50c0-1.6.3-3 .9-4.2S52 43.7 53 43c1-.6 2.2-1 3.6-1 1.3 0 2.5.3 3.6 1 1 .6 1.9 1.6 2.4 2.8.6 1.2.9 2.6.9 4.2v.6zm-3.4-.7c0-1.7-.3-3-.9-3.9s-1.5-1.3-2.6-1.3-2 .4-2.6 1.3c-.6.9-.9 2.1-.9 3.8v.8c0 1.6.3 2.9.9 3.8.6.9 1.5 1.4 2.6 1.4s2-.4 2.6-1.3c.6-.9.9-2.1.9-3.8v-.8z" style="fill:rgb(255, 255, 255);animation-play-state:paused" ></path>
<path fill="#fff" d="M69.1 52.6v5.7h-3.3V42.2h6.3c1.2 0 2.3.2 3.2.7s1.6 1.1 2.1 1.9.7 1.7.7 2.8c0 1.6-.5 2.8-1.6 3.7-1.1.9-2.6 1.4-4.5 1.4h-2.9zm0-2.7h3c.9 0 1.5-.2 2-.6.5-.4.7-1 .7-1.8s-.2-1.4-.7-1.9c-.5-.5-1.1-.7-1.9-.8h-3v5.1z" style="fill:rgb(255, 255, 255);animation-play-state:paused" ></path></g>
<metadata xmlns:d="https://loading.io/stock/" style="animation-play-state:paused" ><d:name style="animation-play-state:paused" >stop</d:name>
<d:tags style="animation-play-state:paused" >terminate,halt,pause,return,cancel,remove,stop,transportation</d:tags>
<d:license style="animation-play-state:paused" >by</d:license>
<d:slug style="animation-play-state:paused" >uchsib</d:slug></metadata></g><!-- generated by https://loading.io/ --></svg>